<svg width="64" height="64" viewBox="0 0 64 64" fill="none" xmlns="http://www.w3.org/2000/svg">
<path d="M38.3378 46.8374C46.0537 46.0168 53.3283 42.0803 57.3337 35.5104C55.4367 51.7608 36.8771 62.0318 21.7276 55.7258C20.3317 55.1463 19.1301 54.1821 18.3055 52.9426C14.901 47.8244 13.7818 41.3117 15.3898 35.4014C19.9841 42.9929 29.3259 47.6463 38.3378 46.8374Z" fill="#F3B01C"/>
<path d="M16.0309 30.6254C12.9528 37.5667 12.8195 45.6931 16.5931 52.3809C3.31287 42.6314 3.4578 21.7677 16.4308 12.1158C17.6307 11.2237 19.0567 10.6942 20.5523 10.6136C26.7026 10.297 32.9514 12.6165 37.3337 16.9389C28.43 17.0252 19.7581 22.5907 16.0309 30.6254Z" fill="#8D2676"/>
<path d="M41.5691 18.7259C37.1528 12.7729 30.2404 8.72018 22.667 8.59687C37.3065 2.173 55.3139 12.588 57.2744 27.9861C57.4569 29.4155 57.2173 30.873 56.5619 32.1622C53.8267 37.5322 48.755 41.6971 42.8286 43.2384C47.1709 35.4525 46.635 25.9401 41.5691 18.7259Z" fill="#EE342F"/>
</svg>